<?xml version="1.0" encoding="iso-8859-1"?>
<!-- Generator: Adobe Illustrator 19.0.0, SVG Export Plug-In . SVG Version: 6.00 Build 0)  -->
<svg version="1.1" id="Layer_1" xmlns="http://www.w3.org/2000/svg" xmlns:xlink="http://www.w3.org/1999/xlink" x="0px" y="0px"
	 viewBox="0 0 290.626 290.626" style="enable-background:new 0 0 290.626 290.626;" xml:space="preserve">
<g>
	<g>
		<g>
			<path d="M276.564,178.125c0-2.555,1.392-4.58,4.064-8.236c4.219-5.775,9.998-13.692,9.998-29.264
				c0-22.688-16.458-39.052-32.813-41.752v-28.56h-9.375v-18.75h-28.125v9.975C199.974,23.925,160.309,0,117.189,0
				C52.571,0,0.001,52.57,0.001,117.188s52.57,117.188,117.188,117.188c23.161,0,46.125-6.787,65.625-19.219v52.031
				c0,12.923,10.514,23.438,23.438,23.438h56.25c12.923,0,23.438-10.514,23.438-23.438v-56.25c0-12.136-3.708-19.233-6.417-24.413
				C277.806,183.234,276.564,180.858,276.564,178.125z M248.439,79.688v18.75h-28.125v-18.75H248.439z M229.689,60.938h9.375v9.375
				h-9.375V60.938z M220.314,69.975v0.338h-0.741L220.314,69.975z M189.229,186.525c-2.091,4.003-4.758,9.173-5.873,16.894
				C164.242,217.317,140.828,225,117.189,225C57.742,225,9.376,176.639,9.376,117.188c0-59.447,48.366-107.813,107.813-107.813
				c41.292,0,79.116,23.864,97.055,60.938h-3.305v28.561c-3.623,0.6-7.237,1.861-10.688,3.722
				c-6.947-39.816-41.691-69.783-83.063-69.783c-46.523,0-84.375,37.852-84.375,84.375s37.852,84.375,84.375,84.375
				c28.688,0,54.202-12.286,69.848-33.183c0.366,0.511,0.741,1.031,1.087,1.509c2.672,3.656,4.064,5.681,4.064,8.236
				C192.187,180.858,190.945,183.234,189.229,186.525z M181.824,159.52c-13.702,20.784-37.059,32.667-64.636,32.667
				c-41.353,0-75-33.647-75-75c0-41.353,33.647-75,75-75c38.367,0,70.289,28.997,74.452,66.675
				c-7.903,7.491-13.514,18.544-13.514,31.763C178.126,148.762,179.715,154.777,181.824,159.52z M262.501,281.251h-56.25
				c-7.753,0-14.063-6.309-14.063-14.063v-56.25c0-9.834,2.841-15.272,5.348-20.072c1.978-3.792,4.027-7.706,4.027-12.741
				c0-5.733-2.981-9.816-5.869-13.767c-3.839-5.259-8.194-11.217-8.194-23.733c0-20.33,16.383-32.813,28.125-32.813h37.5
				c11.742,0,28.125,12.483,28.125,32.813c0,12.516-4.355,18.473-8.194,23.733c-2.887,3.952-5.869,8.034-5.869,13.767
				c0,5.034,2.048,8.948,4.027,12.741c2.508,4.8,5.348,10.238,5.348,20.072v56.25h0.002
				C276.564,274.941,270.255,281.251,262.501,281.251z"/>
			<rect x="196.876" y="135.938" width="37.5" height="9.375"/>
			<rect x="201.564" y="257.813" width="65.625" height="9.375"/>
			<rect x="262.501" y="135.938" width="9.375" height="9.375"/>
			<rect x="243.751" y="135.938" width="9.375" height="9.375"/>
			<path d="M42.189,215.625h-9.375c0,18.089-14.719,32.813-32.813,32.813v9.375c18.094,0,32.813,14.723,32.813,32.813h9.375
				c0-18.089,14.719-32.813,32.813-32.813v-9.375C56.907,248.438,42.189,233.714,42.189,215.625z M37.501,271.308
				c-4.022-7.781-10.402-14.161-18.183-18.183c7.781-4.022,14.161-10.402,18.183-18.183c4.022,7.781,10.402,14.161,18.183,18.183
				C47.902,257.147,41.522,263.527,37.501,271.308z"/>
			<path d="M93.751,98.438h-9.375c0,12.923-10.514,23.438-23.438,23.438v9.375c12.923,0,23.438,10.514,23.438,23.438h9.375
				c0-12.923,10.514-23.438,23.438-23.438v-9.375C104.264,121.875,93.751,111.361,93.751,98.438z M89.064,137.798
				c-2.77-4.598-6.642-8.466-11.236-11.236c4.598-2.77,8.466-6.642,11.236-11.236c2.77,4.598,6.642,8.466,11.236,11.236
				C95.706,129.333,91.834,133.205,89.064,137.798z"/>
		</g>
	</g>
</g>
<g>
</g>
<g>
</g>
<g>
</g>
<g>
</g>
<g>
</g>
<g>
</g>
<g>
</g>
<g>
</g>
<g>
</g>
<g>
</g>
<g>
</g>
<g>
</g>
<g>
</g>
<g>
</g>
<g>
</g>
</svg>
